<svg height="512pt" viewBox="0 0 512 512.00002" width="512pt" xmlns="http://www.w3.org/2000/svg"><path d="m386.101562 294.554688c0-93.058594-75.238281-168.496094-168.050781-168.496094s-168.050781 75.4375-168.050781 168.496094c0 93.058593 75.238281 168.496093 168.050781 168.496093s168.050781-75.4375 168.050781-168.496093zm0 0" fill="#89c8fd"/><path d="m218.050781 126.058594c-8.625 0-17.101562.652344-25.375 1.910156 80.769531 12.265625 142.671875 82.175781 142.671875 166.585938 0 84.410156-61.902344 154.320312-142.671875 166.585937 8.273438 1.257813 16.75 1.910156 25.375 1.910156 92.8125 0 168.050781-75.4375 168.050781-168.496093 0-93.058594-75.238281-168.496094-168.050781-168.496094zm0 0" fill="#60b6ff"/><g fill="#baeb6c"><path d="m196.207031 191.542969c-25.886719 16.222656-45.304687 42.175781-30.742187 71.378906 14.5625 29.199219 46.921875 17.84375 76.855468 13.789063 29.933594-4.054688 7.28125 88.414062 25.078126 111.125 17.796874 22.710937 67.953124-22.710938 63.101562-51.914063-7.1875-43.234375-9.707031-58.402344 48.539062-89.222656l.15625-.058594c-19.632812-66.480469-79.0625-115.808594-150.621093-120.242187l-.007813.253906s-6.472656 48.667968-32.359375 64.890625zm0 0"/><path d="m323.339844 163.238281c.011718.007813.023437.019531.035156.027344-.011719-.007813-.023438-.015625-.035156-.027344zm0 0"/><path d="m343.890625 182.894531c0 .003907.003906.007813.007813.007813-.003907-.003906-.003907-.003906-.007813-.007813zm0 0"/><path d="m106.410156 370.800781c-7.773437-11.855469 13.753906-39.742187 18.605469-60.832031 4.855469-21.089844-24.269531-19.46875-33.167969-26.769531-8.898437-7.300781-21.035156-38.933594-29.933594-46.234375l-1.421874-1.121094c-6.78125 18.28125-10.492188 38.0625-10.492188 58.710938 0 55.695312 26.953125 105.070312 68.492188 135.746093l.050781-3.53125s6.472656-27.578125-12.132813-55.96875zm0 0"/><path d="m330.5 335.921875c-.035156-.210937-.070312-.417969-.105469-.628906-3.214843 12.988281-7.933593 25.382812-13.960937 36.984375 9.558594-11.28125 15.945312-25.035156 14.066406-36.355469zm0 0"/></g><path d="m228.574219 126.398438-.007813.253906s-.539062 4.0625-1.929687 10.222656c58.929687 22.304688 102.074219 76.859375 108.011719 142.203125 7.425781-10.15625 21.007812-20.007813 44.390624-32.378906l.15625-.058594c-19.632812-66.480469-79.0625-115.808594-150.621093-120.242187zm0 0" fill="#96d629"/><path d="m217.824219 512c-11.902344 0-23.890625-.976562-35.871094-2.957031-57.269531-9.457031-107.429687-40.648438-141.238281-87.828125-33.808594-47.179688-47.21875-104.703125-37.757813-161.96875.683594-4.148438 4.613281-6.953125 8.75-6.269532 4.148438.683594 6.957031 4.601563 6.269531 8.75-8.792968 53.253907 3.675782 106.746094 35.117188 150.621094s78.082031 72.878906 131.34375 81.675782c109.949219 18.164062 214.152344-56.511719 232.3125-166.445313 8.792969-53.253906-3.675781-106.746094-35.117188-150.621094-31.4375-43.875-78.082031-72.878906-131.339843-81.675781-4.148438-.683594-6.957031-4.601562-6.273438-8.75.6875-4.148438 4.613281-6.953125 8.75-6.269531 57.273438 9.457031 107.433594 40.648437 141.238281 87.828125 33.808594 47.179687 47.21875 104.703125 37.761719 161.96875s-40.652343 107.421875-87.835937 141.226562c-37.316406 26.734375-81.097656 40.714844-126.109375 40.714844zm0 0" fill="#09a66d"/><path d="m171.605469 183.886719c-81.265625-13.789063-131.679688-116.109375-131.679688-116.109375s81.347657-79.964844 162.613281-66.179688c81.265626 13.785156 131.679688 116.105469 131.679688 116.105469s-81.347656 79.96875-162.613281 66.183594zm0 0" fill="#49cb5c"/><path d="m202.539062 1.597656c-15.519531-2.632812-31.035156-1.839844-45.992187 1.15625 77.871094 17.484375 125.90625 114.949219 125.90625 114.949219s-53.25 52.339844-116.625 65.027344c1.910156.429687 3.832031.824219 5.777344 1.15625 81.265625 13.785156 162.613281-66.183594 162.613281-66.183594s-50.414062-102.320313-131.679688-116.105469zm0 0" fill="#07b128"/><path d="m329.625 109.207031-79.472656-13.40625-74.234375-95.585937c-5.921875.347656-11.789063 1.105468-17.578125 2.191406l69.625 89.648438-59.925782-10.109376-51.132812-66.15625c-4.796875 2.164063-9.460938 4.460938-13.957031 6.84375l42.957031 55.578126-99.089844-16.71875c-4.449218 3.886718-6.890625 6.285156-6.890625 6.285156s1.632813 3.308594 4.765625 8.796875l98.550782 16.625-54.65625 42.261719c3.519531 3.625 7.210937 7.207031 11.070312 10.683593l64.015625-49.496093 63.441406 10.703124-86.28125 66.753907c5.355469 2.5 10.890625 4.664062 16.597657 6.40625l90.113281-69.710938 79.523437 13.414063c4.609375-4.019532 7.152344-6.511719 7.152344-6.511719s-1.574219-3.1875-4.59375-8.496094zm0 0" fill="#09a66d"/><path d="m389.492188 84.566406c21.800781-51.585937 97.335937-68.953125 97.335937-68.953125s40.191406 66.269531 18.390625 117.855469c-21.796875 51.585938-97.335938 68.953125-97.335938 68.953125s-40.191406-66.269531-18.390624-117.855469zm0 0" fill="#49cb5c"/><path d="m486.828125 15.613281s-17.175781 3.953125-37.511719 13.679688c10.433594 22.101562 26.972656 66.957031 11.242188 104.175781-11.402344 26.984375-37.511719 44.605469-59.820313 55.273438 4.027344 8.53125 7.148438 13.679687 7.148438 13.679687s75.535156-17.367187 97.335937-68.953125c21.796875-51.585938-18.394531-117.855469-18.394531-117.855469zm0 0" fill="#07b128"/><path d="m511.394531 90.921875-58.085937 24.367187 38.136718-91.175781c-2.730468-5.390625-4.617187-8.5-4.617187-8.5s-3.59375.828125-9.441406 2.65625l-39.414063 94.226563-24.441406-60.136719c-4.140625 3.652344-8.046875 7.621094-11.589844 11.921875l27.695313 68.144531-26.015625 62.195313c2.539062 4.957031 4.261718 7.800781 4.261718 7.800781s3.90625-.898437 10.1875-2.890625l26.863282-64.21875 66.4375-27.867188c.441406-5.519531.417968-11.054687.023437-16.523437zm0 0" fill="#09a66d"/></svg>